<svg width="24" height="24" viewBox="0 0 24 24" fill="none" xmlns="http://www.w3.org/2000/svg">
<path d="M14.5875 16.4812C14.5875 16.3979 14.5583 16.3146 14.5 16.2313C14.0333 15.6727 13.6584 15.1936 13.3749 14.7939C13.5499 14.4522 13.6833 14.1355 13.7747 13.8441L15.7123 13.5441C15.7875 13.5356 15.8542 13.492 15.9124 13.413C15.9707 13.3335 15.9996 13.2524 15.9996 13.1691V10.8565C15.9996 10.7649 15.9707 10.6836 15.9124 10.6129C15.8542 10.5422 15.7833 10.4982 15.7 10.4818L13.7998 10.1943C13.708 9.91091 13.5664 9.56907 13.3748 9.16925C13.4996 8.9858 13.6874 8.73572 13.9374 8.41922C14.1873 8.1025 14.3626 7.87759 14.4624 7.74424C14.5208 7.66092 14.5499 7.58167 14.5499 7.50676C14.5499 7.28172 13.9498 6.61506 12.7502 5.50667C12.6669 5.44013 12.5794 5.40681 12.4874 5.40681C12.3876 5.40681 12.3043 5.43566 12.2373 5.49424L10.7622 6.60674C10.4207 6.43179 10.1082 6.30267 9.82483 6.21909L9.53731 4.3067C9.52913 4.22338 9.4874 4.15035 9.4124 4.08792C9.33736 4.02544 9.25404 3.99414 9.16228 3.99414H6.83746C6.64583 3.99414 6.52083 4.09414 6.46251 4.29409C6.36243 4.67749 6.26667 5.31929 6.175 6.21909C5.81673 6.33573 5.49589 6.46909 5.21258 6.61908L3.77514 5.4942C3.69182 5.43575 3.60434 5.40676 3.51262 5.40676C3.35409 5.40676 3.02498 5.65256 2.52503 6.14431C2.025 6.6359 1.68315 7.00673 1.49997 7.25677C1.44156 7.32353 1.41253 7.40685 1.41253 7.50685C1.41253 7.58176 1.44152 7.66508 1.49997 7.75676C1.96655 8.31524 2.3415 8.79439 2.6249 9.1942C2.44995 9.53605 2.31667 9.85255 2.22508 10.1442L0.287516 10.444C0.21243 10.4523 0.145837 10.496 0.0874324 10.575C0.0291587 10.6544 0 10.7355 0 10.8188V13.1313C0 13.223 0.0291587 13.3042 0.0874324 13.3749C0.145837 13.4459 0.216589 13.4854 0.300081 13.4937L2.20004 13.7937C2.30004 14.1103 2.44601 14.4521 2.63764 14.8187C2.50428 15.0022 2.30853 15.2565 2.05017 15.5813C1.79164 15.9065 1.62089 16.1273 1.53762 16.2438C1.4793 16.3272 1.4501 16.4066 1.4501 16.4812C1.4501 16.7065 2.05017 17.373 3.25015 18.4814C3.33346 18.5479 3.42085 18.581 3.51266 18.581C3.62098 18.581 3.7043 18.5521 3.76257 18.4937L5.23754 17.3814C5.57908 17.5564 5.8916 17.6854 6.17504 17.7687L6.46256 19.6813C6.47079 19.7646 6.51255 19.8377 6.58746 19.9C6.66246 19.9625 6.74578 19.9937 6.8375 19.9937H9.16232C9.35409 19.9937 9.479 19.8938 9.53736 19.6937C9.63735 19.3019 9.7331 18.6562 9.82487 17.7561C10.1581 17.6565 10.4789 17.5269 10.7873 17.3688L12.2248 18.4937C12.3081 18.5521 12.3956 18.581 12.4873 18.581C12.6457 18.581 12.9729 18.3332 13.4687 17.8371C13.9643 17.3417 14.3082 16.9684 14.4999 16.7185C14.5583 16.6604 14.5875 16.5813 14.5875 16.4812ZM10.2623 14.2566C9.63749 14.8813 8.88326 15.1939 8 15.1939C7.11653 15.1939 6.3623 14.8813 5.73744 14.2566C5.1125 13.6315 4.79998 12.8772 4.79998 11.9939C4.79998 11.1107 5.1125 10.3564 5.73744 9.7315C6.3623 9.10651 7.11657 8.79408 8 8.79408C8.88326 8.79408 9.63749 9.10647 10.2623 9.7315C10.8874 10.3564 11.1998 11.1107 11.1998 11.9939C11.1998 12.8772 10.8875 13.6315 10.2623 14.2566Z" fill="#9C9C9C"/>
<path d="M22.1373 17.1314C22.0292 16.8898 21.904 16.6732 21.7625 16.4814C22.1876 15.5395 22.3999 14.9645 22.3999 14.7563C22.3999 14.7233 22.3835 14.6939 22.35 14.6689C21.3497 14.0857 20.8332 13.7939 20.7999 13.7939L20.7249 13.8191C20.3833 14.1609 19.9998 14.6274 19.575 15.2191C19.4084 15.2025 19.2836 15.194 19.2002 15.194C19.1167 15.194 18.9918 15.2025 18.8251 15.2191C18.7088 15.044 18.4919 14.7626 18.1753 14.3753C17.8587 13.988 17.6669 13.794 17.6002 13.794C17.5836 13.794 17.4586 13.8606 17.2252 13.9943C16.9919 14.1277 16.7461 14.2691 16.4877 14.4194C16.2292 14.5697 16.0837 14.6526 16.0503 14.6694C16.0167 14.6943 16.0002 14.7237 16.0002 14.7566C16.0002 14.9652 16.2127 15.5398 16.6376 16.4817C16.4962 16.6735 16.371 16.8902 16.2627 17.1315C15.021 17.2563 14.4001 17.3857 14.4001 17.519V19.2689C14.4001 19.4022 15.021 19.5314 16.2627 19.6563C16.3625 19.8814 16.4876 20.0981 16.6376 20.306C16.2127 21.2479 16.0002 21.8229 16.0002 22.0311C16.0002 22.0644 16.0167 22.0938 16.0503 22.1186C17.0667 22.7103 17.5836 23.0061 17.6002 23.0061C17.6669 23.0061 17.8587 22.8103 18.1753 22.4186C18.4919 22.0268 18.7085 21.7438 18.8251 21.5688C18.9917 21.5851 19.1167 21.5935 19.2002 21.5935C19.2835 21.5935 19.4084 21.5851 19.575 21.5688C19.6914 21.7438 19.9082 22.0268 20.2248 22.4186C20.5414 22.8103 20.733 23.0061 20.7999 23.0061C20.8165 23.0061 21.3334 22.7102 22.35 22.1186C22.3835 22.0938 22.3999 22.0646 22.3999 22.0311C22.3999 21.8228 22.1873 21.2478 21.7625 20.306C21.9125 20.0981 22.0374 19.8814 22.1373 19.6563C23.3791 19.5314 24 19.4022 24 19.2689V17.519C24 17.3856 23.3791 17.2563 22.1373 17.1314ZM20.331 19.525C20.0189 19.8376 19.6417 19.9941 19.1999 19.9941C18.7581 19.9941 18.381 19.8376 18.0687 19.525C17.7562 19.2124 17.5998 18.8355 17.5998 18.3938C17.5998 17.9606 17.7583 17.5853 18.075 17.2689C18.3915 16.9523 18.7666 16.7939 19.1999 16.7939C19.6331 16.7939 20.0084 16.9522 20.3251 17.2689C20.6415 17.5854 20.8001 17.9607 20.8001 18.3938C20.7998 18.8355 20.6437 19.2124 20.331 19.525Z" fill="#9C9C9C"/>
<path d="M22.1373 4.33135C22.0292 4.08967 21.904 3.87304 21.7625 3.68123C22.1876 2.7397 22.3999 2.16467 22.3999 1.95635C22.3999 1.92317 22.3835 1.89388 22.35 1.86883C21.3497 1.28553 20.8332 0.993896 20.7999 0.993896L20.7249 1.01885C20.3833 1.3607 19.9998 1.82724 19.575 2.41887C19.4084 2.40232 19.2836 2.39391 19.2002 2.39391C19.1167 2.39391 18.9918 2.40232 18.8251 2.41887C18.7088 2.24387 18.4919 1.96266 18.1753 1.57519C17.8587 1.18763 17.6669 0.99394 17.6002 0.99394C17.5836 0.99394 17.4586 1.06053 17.2252 1.19398C16.9919 1.32747 16.7461 1.46906 16.4877 1.6191C16.2292 1.76919 16.0837 1.85246 16.0503 1.86901C16.0167 1.89401 16.0002 1.92317 16.0002 1.95653C16.0002 2.16484 16.2127 2.73992 16.6376 3.68149C16.4962 3.87326 16.371 4.08985 16.2627 4.33152C15.021 4.45643 14.4001 4.58554 14.4001 4.7189V6.46891C14.4001 6.60218 15.021 6.73143 16.2627 6.85629C16.3625 7.0812 16.4876 7.29796 16.6376 7.50632C16.2127 8.44807 16.0002 9.02288 16.0002 9.23129C16.0002 9.26443 16.0167 9.29372 16.0503 9.31872C17.0667 9.91034 17.5836 10.2062 17.6002 10.2062C17.6669 10.2062 17.8587 10.0104 18.1753 9.61871C18.4919 9.22699 18.7085 8.94381 18.8251 8.76873C18.9917 8.78528 19.1167 8.79373 19.2002 8.79373C19.2835 8.79373 19.4084 8.78528 19.575 8.76873C19.6914 8.94381 19.9082 9.22695 20.2248 9.61871C20.5414 10.0104 20.733 10.2062 20.7999 10.2062C20.8165 10.2062 21.3334 9.91034 22.35 9.31872C22.3835 9.29372 22.3999 9.26456 22.3999 9.23129C22.3999 9.02288 22.1873 8.44807 21.7625 7.50632C21.9125 7.29796 22.0374 7.08133 22.1373 6.85629C23.3791 6.73138 24 6.60218 24 6.46891V4.7189C24 4.58554 23.3791 4.45639 22.1373 4.33135ZM20.331 6.72508C20.0189 7.03764 19.6417 7.19389 19.1999 7.19389C18.7581 7.19389 18.381 7.03764 18.0687 6.72508C17.7562 6.41269 17.5998 6.03556 17.5998 5.59388C17.5998 5.16058 17.7583 4.7855 18.075 4.46882C18.3915 4.15215 18.7666 3.99379 19.1999 3.99379C19.6331 3.99379 20.0084 4.15232 20.3251 4.46882C20.6415 4.78545 20.8001 5.16058 20.8001 5.59388C20.7998 6.03556 20.6437 6.41269 20.331 6.72508Z" fill="#9C9C9C"/>
</svg>
