<svg width="24" height="24" viewBox="0 0 24 24" fill="none" xmlns="http://www.w3.org/2000/svg">
<path d="M5.95499 12.0975H7.64624C7.89385 12.0966 8.13449 12.0153 8.33197 11.8658C8.5294 11.7164 8.67303 11.5069 8.74124 11.2688L9.04499 10.1963H5.71124V11.8538C5.71124 11.9184 5.73693 11.9805 5.78264 12.0262C5.82836 12.0719 5.89034 12.0975 5.95499 12.0975Z" fill="#9C9C9C"/>
<path d="M17.2012 13.9275C17.1475 13.9275 17.096 13.9488 17.058 13.9868C17.02 14.0248 16.9987 14.0763 16.9987 14.13C16.9987 14.1837 17.02 14.2352 17.058 14.2732C17.096 14.3112 17.1475 14.3325 17.2012 14.3325H20.2012C20.2549 14.3325 20.3064 14.3112 20.3444 14.2732C20.3824 14.2352 20.4037 14.1837 20.4037 14.13C20.4037 14.0763 20.3824 14.0248 20.3444 13.9868C20.3064 13.9488 20.2549 13.9275 20.2012 13.9275H17.2012Z" fill="#9C9C9C"/>
<path d="M9.70878 9.69375C9.76626 9.77198 9.80526 9.86224 9.82281 9.95771C9.84033 10.0532 9.83598 10.1514 9.81003 10.245C9.66003 10.695 9.47253 11.745 9.14628 12.0975H21V5.625H11.565C10.9681 5.62541 10.378 5.75111 9.83283 5.994C9.28761 6.23689 8.79948 6.59153 8.40003 7.035L6.21378 9.465H9.21378C9.30816 9.46335 9.40176 9.48308 9.48745 9.52268C9.57318 9.56228 9.64885 9.62078 9.70878 9.69375ZM17.2088 9.25875L15.93 10.5413C15.8952 10.5764 15.8537 10.6043 15.808 10.6233C15.7623 10.6424 15.7133 10.6522 15.6638 10.6522C15.6143 10.6522 15.5652 10.6424 15.5196 10.6233C15.4738 10.6043 15.4324 10.5764 15.3975 10.5413C15.3277 10.471 15.2885 10.376 15.2885 10.2769C15.2885 10.1778 15.3277 10.0828 15.3975 10.0125L16.68 8.73C16.7529 8.68159 16.8405 8.66018 16.9275 8.66951C17.0145 8.67885 17.0955 8.7183 17.1564 8.78108C17.2174 8.84381 17.2545 8.92594 17.2614 9.01316C17.2682 9.10039 17.2443 9.18728 17.1938 9.25875H17.2088ZM13.875 8.4825L15.1575 7.2C15.2278 7.13014 15.3228 7.09095 15.4219 7.09095C15.521 7.09095 15.616 7.13014 15.6863 7.2C15.7214 7.23488 15.7493 7.27635 15.7684 7.32203C15.7874 7.36774 15.7972 7.41675 15.7972 7.46625C15.7972 7.51575 15.7874 7.56476 15.7684 7.61047C15.7493 7.65615 15.7214 7.69763 15.6863 7.7325L14.385 9C14.3131 9.04193 14.2292 9.05869 14.1467 9.04766C14.0641 9.03668 13.9876 8.9985 13.9292 8.93921C13.8707 8.87989 13.8337 8.80283 13.8239 8.72014C13.8141 8.63745 13.8321 8.55383 13.875 8.4825ZM13.74 10.125L16.785 7.08C16.8568 7.01857 16.949 6.98648 17.0434 6.99011C17.1378 6.99375 17.2273 7.03286 17.2941 7.09965C17.3609 7.16644 17.4 7.25599 17.4037 7.35034C17.4073 7.44473 17.3752 7.53701 17.3138 7.60875L14.2688 10.6538C14.197 10.7152 14.1048 10.7473 14.0104 10.7436C13.916 10.74 13.8265 10.7009 13.7597 10.6341C13.6929 10.5673 13.6538 10.4778 13.6501 10.3834C13.6465 10.289 13.6786 10.1967 13.74 10.125Z" fill="#9C9C9C"/>
<path d="M21.5925 3.75H11.565C10.7053 3.75045 9.85526 3.93124 9.06983 4.2807C8.28435 4.63013 7.58093 5.1405 7.005 5.77875L2.2275 11.07C1.5163 11.859 1.12341 12.884 1.125 13.9462V16.5938C1.125 17.175 1.125 18.3975 1.125 18.9862C1.125 19.3264 1.26012 19.6526 1.50064 19.8931C1.74116 20.1336 2.06736 20.2687 2.4075 20.2687H21.5925C21.9327 20.2687 22.2588 20.1336 22.4994 19.8931C22.7399 19.6526 22.875 19.3264 22.875 18.9862C22.875 18.39 22.875 17.1788 22.875 16.5938V5.01375C22.8701 4.67689 22.7328 4.35548 22.4928 4.119C22.2528 3.88253 21.9294 3.74996 21.5925 3.75ZM4.96125 9.85875C4.97044 9.76774 5.00415 9.68089 5.05875 9.6075L7.845 6.51375C8.31615 5.99584 8.89061 5.5824 9.53134 5.30014C10.1721 5.01788 10.8648 4.87305 11.565 4.875H21.375C21.4745 4.875 21.5699 4.91453 21.6402 4.98484C21.7105 5.05515 21.75 5.15055 21.75 5.25V12.4725C21.75 12.5719 21.7105 12.6673 21.6402 12.7377C21.5699 12.808 21.4745 12.8475 21.375 12.8475H5.95125C5.68834 12.8465 5.43656 12.7414 5.25098 12.5551C5.06543 12.3689 4.96125 12.1167 4.96125 11.8538V9.85875ZM21.1575 14.13C21.1575 14.3826 21.0572 14.6249 20.8785 14.8035C20.6999 14.9822 20.4576 15.0825 20.205 15.0825H17.205C16.9524 15.0825 16.7101 14.9822 16.5315 14.8035C16.3529 14.6249 16.2525 14.3826 16.2525 14.13C16.2525 13.8774 16.3529 13.6351 16.5315 13.4565C16.7101 13.2779 16.9524 13.1775 17.205 13.1775H20.205C20.4576 13.1775 20.6999 13.2779 20.8785 13.4565C21.0572 13.6351 21.1575 13.8774 21.1575 14.13ZM22.125 17.25H1.875V16.9537H22.125V17.25Z" fill="#9C9C9C"/>
</svg>
