<svg width="24" height="24" viewBox="0 0 24 24" fill="none" xmlns="http://www.w3.org/2000/svg">
<g clip-path="url(#clip0_10_1003)">
<path d="M8.37657 0.0514641C7.95469 0.149902 7.47188 0.534277 7.29376 0.909277C7.24688 1.0124 5.68594 5.76084 3.82969 11.4562L0.450007 21.8202V22.3124C0.445319 22.7624 0.454694 22.8233 0.576569 23.053C0.754694 23.3905 1.07344 23.6999 1.39688 23.8499C1.65001 23.9718 1.70626 23.9765 2.55938 23.9905L3.45469 24.0093L3.48282 23.8733C3.51563 23.714 8.85001 0.257713 8.89219 0.103027C8.91563 0.00927734 8.90157 -9.91821e-05 8.73751 0.00458908C8.63438 0.00927734 8.47501 0.0280266 8.37657 0.0514641Z" fill="#9C9C9C"/>
<path d="M10.3406 0.0796776C10.3031 0.201551 4.96876 23.6672 4.93595 23.85L4.90782 24H8.10469H11.2969V22.8C11.2969 21.4687 11.3156 21.3656 11.5969 21.1922C11.9719 20.9578 12.4031 21.075 12.6 21.4687C12.6984 21.6656 12.7031 21.7266 12.7031 22.8375V24H16.125C18.0094 24 19.5469 23.9906 19.5469 23.9812C19.5469 23.9719 18.3422 18.6703 16.8703 12.2016C15.4031 5.73749 14.175 0.346865 14.1516 0.220303L14.1 -1.14441e-05H13.4016H12.7031V1.16249C12.7031 2.27343 12.6984 2.33437 12.6 2.53124C12.4031 2.92499 11.9719 3.04218 11.5969 2.8078C11.3156 2.63437 11.2969 2.53124 11.2969 1.19999V-1.14441e-05H10.8328C10.4297 -1.14441e-05 10.3641 0.00936508 10.3406 0.0796776ZM12.2813 4.13437C12.6609 4.33124 12.6797 4.39687 12.6797 5.72812C12.6797 6.8203 12.675 6.89062 12.5813 7.01249C12.2531 7.45312 11.6906 7.46249 11.4047 7.03593C11.3016 6.88124 11.2969 6.84374 11.2969 5.70468C11.2969 4.36874 11.3109 4.31249 11.6859 4.12968C11.9344 4.00312 12.0234 4.0078 12.2813 4.13437ZM12.2813 8.16562C12.4359 8.24531 12.5203 8.32968 12.6 8.48437C12.7031 8.69062 12.7078 8.72343 12.6938 9.85312C12.6797 10.9359 12.675 11.0156 12.5813 11.1375C12.2531 11.5781 11.6906 11.5875 11.4047 11.1609C11.3016 11.0062 11.2969 10.9687 11.2969 9.81093C11.2969 8.50781 11.3156 8.38593 11.5641 8.22187C11.8406 8.04374 12.0141 8.02968 12.2813 8.16562ZM12.2813 12.2906C12.4359 12.3703 12.5203 12.4547 12.6 12.6094C12.7031 12.8156 12.7078 12.8484 12.6938 13.9781C12.6797 15.0609 12.675 15.1406 12.5813 15.2625C12.2531 15.7031 11.6906 15.7125 11.4047 15.2859C11.3016 15.1312 11.2969 15.0937 11.2969 13.9359C11.2969 12.6328 11.3156 12.5109 11.5641 12.3469C11.8406 12.1687 12.0141 12.1547 12.2813 12.2906ZM12.2813 16.4625C12.4359 16.5422 12.5203 16.6266 12.6 16.7812C12.7031 16.9875 12.7078 17.0203 12.6938 18.15C12.6797 19.2328 12.675 19.3125 12.5813 19.4344C12.2531 19.875 11.6906 19.8844 11.4047 19.4578C11.3016 19.3031 11.2969 19.2656 11.2969 18.1078C11.2969 16.8047 11.3156 16.6828 11.5641 16.5187C11.8406 16.3406 12.0141 16.3266 12.2813 16.4625Z" fill="#9C9C9C"/>
<path d="M15.5625 0.0468369C15.5625 0.103088 20.9297 23.7469 20.9813 23.925C21.0094 24.0047 21.0563 24.0094 21.675 23.9906C22.2703 23.9765 22.3641 23.9625 22.6031 23.85C22.9266 23.7 23.2453 23.3906 23.4235 23.0531C23.5406 22.8281 23.5547 22.7578 23.5547 22.3359V21.8672L20.4047 11.5312C18.4781 5.21247 17.1938 1.08278 17.1047 0.899963C16.936 0.56715 16.6828 0.3234 16.336 0.159338C16.0547 0.0280876 15.5625 -0.0422249 15.5625 0.0468369Z" fill="#9C9C9C"/>
</g>
<defs>
<clipPath id="clip0_10_1003">
<rect width="24" height="24" fill="white"/>
</clipPath>
</defs>
</svg>
