<svg width="24" height="24" viewBox="0 0 24 24" fill="none" xmlns="http://www.w3.org/2000/svg">
<path d="M17.25 10.5C16.4595 10.5 15.7043 10.6425 15 10.8915V9H9V10.5H6V7.5H7.5V1.5H1.5V7.5H4.5V19.4993H9V22.5H13.0118C14.1705 23.436 15.6442 23.9993 17.25 24C20.9783 23.9985 23.9985 20.9783 24 17.25C23.9985 13.5203 20.9783 10.5 17.25 10.5ZM10.5443 16.5H9V18H6.00075L6 11.9985H9V15H10.8915C10.7228 15.4785 10.6012 15.9795 10.5443 16.5ZM17.25 22.4123C14.3993 22.4055 12.093 20.0993 12.0863 17.25C12.093 14.3993 14.3993 12.093 17.25 12.0863C20.0993 12.093 22.4055 14.3993 22.4123 17.25C22.4055 20.0993 20.0993 22.4055 17.25 22.4123Z" fill="#9C9C9C"/>
<path d="M21 18V16.4993H19.7527C19.7055 16.3403 19.644 16.1895 19.569 16.0447L20.4592 15.1545L19.3973 14.0933L18.5235 14.9678C18.3585 14.8755 18.1845 14.802 18.0007 14.7473V13.5H16.5007V14.7465C16.329 14.7975 16.1663 14.865 16.0118 14.949L15.156 14.094L14.0947 15.1553L14.9498 16.0103C14.8658 16.1655 14.7983 16.3282 14.7465 16.5H13.5V18H14.7465C14.8013 18.1845 14.8755 18.3593 14.9678 18.5235L14.094 19.3958L15.1537 20.4578L16.0447 19.5675C16.1887 19.6432 16.3402 19.704 16.4985 19.7512V21H18V19.7512C18.1718 19.7002 18.3337 19.6328 18.4882 19.5488L19.3973 20.4578L20.4578 19.3958L19.5488 18.4882C19.632 18.3337 19.6995 18.171 19.7512 18H21ZM17.2493 18.3743C16.6275 18.3728 16.1257 17.871 16.1235 17.2493C16.1257 16.6275 16.6275 16.1257 17.2493 16.1235C17.871 16.1257 18.3728 16.6275 18.3743 17.2493C18.3728 17.871 17.871 18.3728 17.2493 18.3743Z" fill="#9C9C9C"/>
</svg>
