<svg width="24" height="24" viewBox="0 0 24 24" fill="none" xmlns="http://www.w3.org/2000/svg">
<path d="M20.175 1.875C20.025 1.65 19.8 1.5 19.5 1.5H10.5C10.2 1.5 9.97499 1.65 9.82499 1.875L4.57499 11.625C4.42499 11.85 4.42499 12.15 4.57499 12.375C4.72499 12.6 4.94999 12.75 5.24999 12.75H8.54999L4.57499 21.45C4.42499 21.75 4.49999 22.125 4.79999 22.35C4.87499 22.425 5.09999 22.5 5.24999 22.5C5.39999 22.5 5.54999 22.425 5.69999 22.35L19.2 12.6C19.5 12.375 19.575 12.075 19.5 11.775C19.425 11.475 19.125 11.25 18.75 11.25H15.525L20.175 2.625C20.25 2.4 20.25 2.1 20.175 1.875Z" fill="#9C9C9C"/>
</svg>
