<svg width="21" height="20" viewBox="0 0 21 20" fill="none" xmlns="http://www.w3.org/2000/svg">
<path fill-rule="evenodd" clip-rule="evenodd" d="M15.399 11C15.531 10.349 15.536 9.673 15.399 9H18.43C18.522 9.733 18.523 10.261 18.43 11H15.399ZM13.5 17.4111V13.9771C13.979 13.7921 14.268 13.392 14.477 13H17.911C17.098 15 15.5 16.5981 13.5 17.4111ZM10.5 13C6.535 13 6.535 7 10.5 7C14.464 7 14.464 13 10.5 13ZM9.5 18H11.5V15H9.5V18ZM7.5 17.4111C5.5 16.5981 3.902 15 3.089 13H6.522C6.802 13.37 7.5 13.6981 7.5 13.9771V17.4111ZM2.569 9H5.601C5.468 9.651 5.464 10.327 5.601 11H2.569C2.477 10.267 2.476 9.739 2.569 9ZM10.5 2C13.85 2 16.721 4.072 17.911 7H14.477C13.564 5.792 12.13 5 10.5 5C8.869 5 7.435 5.792 6.522 7H3.089C4.278 4.072 7.15 2 10.5 2ZM10.5 0C4.977 0 0.5 4.477 0.5 10C0.5 15.523 4.977 20 10.5 20C16.023 20 20.5 15.523 20.5 10C20.5 4.477 16.023 0 10.5 0Z" fill="#9C9C9C"/>
</svg>
